<svg xmlns="http://www.w3.org/2000/svg" width="24" height="24" fill="none" viewBox="0 0 24 24"><path fill="#FD366E" d="M24.443 16.432v5.478H10.752c-3.989 0-7.472-2.203-9.335-5.478A11.041 11.041 0 0 1 0 11.695v-1.48a10.97 10.97 0 0 1 .381-2.247C1.661 3.368 5.82 0 10.751 0c4.934 0 9.092 3.37 10.371 7.967h-5.854c-.96-1.499-2.624-2.49-4.516-2.49s-3.555.991-4.516 2.49a5.47 5.47 0 0 0-.67 1.494 5.562 5.562 0 0 0-.202 1.494 5.5 5.5 0 0 0 1.69 3.983 5.32 5.32 0 0 0 3.698 1.494h13.69Z"/><path fill="#FD366E" d="M24.443 9.46v5.478h-9.994a5.5 5.5 0 0 0 1.691-3.983 5.56 5.56 0 0 0-.203-1.494h8.506Z"/></svg>